<svg width="65" height="65" viewBox="0 0 65 65" fill="none" xmlns="http://www.w3.org/2000/svg">
<path fill-rule="evenodd" clip-rule="evenodd" d="M0 15.9307C0 12.8223 5.81652 6.78309 9.3253 2.88948C10.8763 1.16835 14.1441 0 15.9307 0H48.5693C50.9006 0 53.7624 1.55422 55.1747 2.88948C57.506 5.0936 64.5 12.4337 64.5 15.9307V55.1747C64.5 60.3249 60.3249 64.5 55.1747 64.5H9.3253C4.17508 64.5 0 60.3249 0 55.1747V15.9307ZM15.9307 1.94277C13.988 1.94277 12.1729 2.49509 10.1024 4.88165C7.26136 8.15641 4 11 2.33133 15.7612V54.7861C2.33133 59.078 5.81056 62.5572 10.1024 62.5572H54.3976C58.6894 62.5572 62.1687 59.078 62.1687 54.7861V15.9307C61 11.6696 56.0056 6.5 53.5 4.5C52.0432 3.33712 50.512 1.94277 47.7922 1.94277H15.9307Z" fill="#EFF2DD"/>
<path fill-rule="evenodd" clip-rule="evenodd" d="M11.8223 16.6055C11.8223 10.5303 16.7471 5.60547 22.8223 5.60547H41.6777C47.7528 5.60547 52.6777 10.5303 52.6777 16.6055V37.0151C52.6777 43.0902 47.7528 48.0151 41.6777 48.0151H22.8223C16.7471 48.0151 11.8223 43.0902 11.8223 37.0151V16.6055ZM22.8223 7.60547C17.8517 7.60547 13.8223 11.6349 13.8223 16.6055V37.0151C13.8223 41.9857 17.8517 46.0151 22.8223 46.0151H41.6777C46.6483 46.0151 50.6777 41.9857 50.6777 37.0151V16.6055C50.6777 11.6349 46.6483 7.60547 41.6777 7.60547H22.8223Z" fill="#EFF2DD"/>
</svg>
