<svg width="75" height="75" viewBox="0 0 75 75" fill="none" xmlns="http://www.w3.org/2000/svg">
<path fill-rule="evenodd" clip-rule="evenodd" d="M7.2525 7.22685C8.03089 6.41299 8.80391 5.60474 9.5322 4.80475L9.53223 4.80471C9.99015 4.30171 10.4306 3.8179 10.8434 3.35986C12.6469 1.35854 16.4467 0 18.5241 0H56.4759C59.1867 0 62.5144 1.80723 64.1566 3.35986C64.2059 3.40646 64.257 3.45473 64.3098 3.50462C67.1605 6.19819 75 13.6055 75 18V64.1566C75 70.1453 70.1453 75 64.1566 75H10.8434C4.85474 75 0 70.1453 0 64.1566V18.5241C0 14.8099 3.68274 10.9593 7.2525 7.22685ZM13.5542 14.4578C13.5542 9.4673 17.5998 5.42169 22.5904 5.42169H53.3133C58.3038 5.42169 62.3494 9.4673 62.3494 14.4578V46.9879C62.3494 51.9785 58.3038 56.0241 53.3133 56.0241H22.5904C17.5998 56.0241 13.5542 51.9785 13.5542 46.9879V14.4578ZM15.3614 16.2651C15.3614 11.2745 19.4071 7.22891 24.3976 7.22891H51.506C56.4965 7.22891 60.5422 11.2745 60.5422 16.2651V45.1807C60.5422 50.1712 56.4965 54.2169 51.506 54.2169H24.3976C19.4071 54.2169 15.3614 50.1712 15.3614 45.1807V16.2651ZM28 45H33.755V39.3961L38.1465 33.675L44.4629 45H51L41.9163 28.8131L51 17H44.4629L33.755 31V17H28V45Z" fill="#EE6B61"/>
</svg>
