<svg width="69" height="69" viewBox="0 0 69 69" fill="none" xmlns="http://www.w3.org/2000/svg">
<path fill-rule="evenodd" clip-rule="evenodd" d="M8.76962 4.42037C5.02679 8.53168 0 12.88 0 17.0422C0 20.7 0 59.0241 0 59.0241C0 64.5336 4.46636 69 9.9759 69H59.0241C64.5336 69 69 64.5336 69 59.0241C69 59.0241 69 20.6778 69 16.56C69 12.4422 61.5181 5.44897 59.0241 3.09107C57.5132 1.66265 54.4518 0 51.9578 0H17.0422C15.1309 0 11.6351 1.24986 9.9759 3.09107C9.59614 3.51248 9.19092 3.9576 8.76962 4.42037ZM20.7831 4.98795C16.1918 4.98795 12.4699 8.70992 12.4699 13.3012V43.2289C12.4699 47.8202 16.1919 51.5422 20.7831 51.5422H49.0482C53.6395 51.5422 57.3614 47.8202 57.3614 43.2289V13.3012C57.3614 8.70992 53.6395 4.98795 49.0482 4.98795H20.7831ZM22.4458 6.6506C17.8545 6.6506 14.1325 10.3726 14.1325 14.9639V41.5663C14.1325 46.1575 17.8545 49.8795 22.4458 49.8795H47.3855C51.9768 49.8795 55.6988 46.1575 55.6988 41.5663V14.9639C55.6988 10.3726 51.9768 6.6506 47.3855 6.6506H22.4458Z" fill="#EFF2DD"/>
</svg>
