<svg width="193" height="45" viewBox="0 0 193 45" fill="none" xmlns="http://www.w3.org/2000/svg">
<path fill-rule="evenodd" clip-rule="evenodd" d="M154.409 31.499C154.409 33.3424 154.057 35.0719 153.352 36.6874C152.648 38.303 151.685 39.7218 150.463 40.9438C149.262 42.1451 147.853 43.0979 146.238 43.8021C144.622 44.5064 142.893 44.8585 141.049 44.8585H118.773V44.8582H104.664V30.9087C106.631 30.4116 108.433 29.6142 110.07 28.5164C111.706 27.4187 113.114 26.1138 114.295 24.6018C115.476 23.0691 116.387 21.381 117.029 19.5376C117.692 17.6735 118.023 15.7162 118.023 13.6657V0.318305H118.773V0.306152H141.049C142.893 0.306152 144.622 0.658263 146.238 1.36248C147.853 2.0667 149.262 3.02983 150.463 4.25186C151.685 5.45318 152.648 6.86162 153.352 8.47718C154.057 10.0927 154.409 11.8222 154.409 13.6656C154.409 14.4941 154.295 15.3433 154.067 16.2133C153.875 16.9464 153.617 17.6576 153.292 18.3466H172.624L177.493 9.22283H158.479V0.306152H192.965L183.37 18.3466H193V26.8304H178.859L174.013 35.9418H192.965V44.8585H158.479L168.098 26.8304H153.342C153.654 27.5092 153.896 28.2162 154.067 28.9514C154.295 29.8213 154.409 30.6705 154.409 31.499ZM127.69 35.9418H141.049C141.671 35.9418 142.251 35.8279 142.789 35.6C143.328 35.3722 143.794 35.0615 144.187 34.668C144.601 34.2537 144.922 33.7773 145.15 33.2388C145.378 32.7003 145.492 32.1204 145.492 31.499C145.492 30.8776 145.378 30.2977 145.15 29.7591C144.922 29.2206 144.601 28.7546 144.187 28.3611C143.794 27.9468 143.328 27.6258 142.789 27.3979C142.251 27.1701 141.671 27.0562 141.049 27.0562H127.69V35.9418ZM127.69 18.1395H141.049C141.671 18.1395 142.251 18.0256 142.789 17.7978C143.328 17.5699 143.794 17.2592 144.187 16.8657C144.601 16.4514 144.922 15.9751 145.15 15.4365C145.378 14.8773 145.492 14.287 145.492 13.6656C145.492 13.0443 145.378 12.4643 145.15 11.9258C144.922 11.3873 144.601 10.9212 144.187 10.5277C143.794 10.1135 143.328 9.79242 142.789 9.56458C142.251 9.33675 141.671 9.22283 141.049 9.22283H127.69V18.1395ZM33.5788 44.8582H16.9883V35.9418L23.7923 26.8387L33.5788 44.8582ZM47.8394 44.8582H43.7071L29.6332 19.1027L43.6982 0.318305H47.8394V44.8582ZM16.9883 0.318305H33.5699L16.9883 22.5824V0.318305ZM78.3798 9.22287V0.318305H82.3876V13.6657C82.3876 15.7162 82.7087 17.6735 83.3508 19.5376C84.0136 21.381 84.9353 23.0691 86.1159 24.6018C87.2965 26.1138 88.7049 27.4187 90.3412 28.5164C91.9982 29.6142 93.8105 30.4116 95.7782 30.9087V44.8582H78.3798V35.9418H56.7561V27.0562H71.3894V18.1395H56.7561V9.22287H78.3798ZM91.3043 13.6657V0.318305H109.138V13.6657C109.138 14.8877 108.899 16.0476 108.423 17.1454C107.967 18.2224 107.336 19.1648 106.528 19.9726C105.72 20.7804 104.767 21.4225 103.67 21.8988C102.593 22.3545 101.443 22.5824 100.221 22.5824C98.999 22.5824 97.8391 22.3545 96.7413 21.8988C95.6643 21.4225 94.7219 20.7804 93.9141 19.9726C93.1063 19.1648 92.4642 18.2224 91.9878 17.1454C91.5322 16.0476 91.3043 14.8877 91.3043 13.6657ZM8.07163 0.318305V44.8582H1C0.447716 44.8582 0 44.4105 0 43.8582V1.3183C0 0.766019 0.447715 0.318305 1 0.318305H8.07163Z" fill="#EE6B61"/>
</svg>
